<?xml version="1.0" standalone="no"?>
<!DOCTYPE svg PUBLIC "-//W3C//DTD SVG 20010904//EN"
 "http://www.w3.org/TR/2001/REC-SVG-20010904/DTD/svg10.dtd">
<svg version="1.0" xmlns="http://www.w3.org/2000/svg"
 width="32" height="32" viewBox="0 0 1825.000000 2465.000000"
 preserveAspectRatio="xMidYMid meet">

<g transform="translate(0.000000,2465.000000) scale(0.100000,-0.100000)"
fill="#0079f2" stroke="none">
<path d="M6230 24631 c-76 -23 -140 -70 -185 -135 -70 -103 -66 42 -63 -2142
l3 -1969 26 -56 c37 -79 90 -133 167 -171 l67 -33 1350 -5 1350 -5 63 -34 c71
-39 110 -79 149 -154 24 -45 28 -64 28 -137 0 -74 -6 -102 -43 -210 -92 -272
-289 -616 -514 -898 -56 -70 -174 -199 -262 -287 -266 -265 -486 -416 -736
-507 l-65 -23 -3640 -5 -3640 -5 -57 -23 c-71 -29 -147 -99 -184 -172 l-29
-55 0 -8675 0 -8675 29 -58 c51 -100 139 -165 251 -186 80 -15 17598 -16
17676 -1 110 21 198 90 246 194 l28 61 0 2020 c0 1535 -3 2028 -12 2052 -9 25
-9 40 0 65 16 43 23 8357 8 8458 -28 178 -170 321 -348 350 -35 6 -777 10
-1893 10 -1116 0 -1858 -4 -1893 -10 -132 -21 -251 -109 -310 -229 l-32 -66
-5 -4055 c-4 -3126 -8 -4063 -17 -4088 -47 -129 -148 -217 -278 -241 -41 -8
-694 -11 -2194 -11 -2024 0 -2249 2 -4290 35 -1394 23 -2169 39 -2195 46 -92
24 -187 106 -229 197 l-22 47 0 4115 0 4115 23 49 c38 84 85 132 169 173 l77
38 1775 1 c1291 1 1806 5 1886 13 755 82 1546 422 2321 999 663 493 1300 1162
1751 1838 293 438 478 799 609 1188 24 70 55 148 69 172 107 182 397 159 486
-38 l24 -53 5 -1195 5 -1195 23 -48 c31 -61 98 -128 159 -159 l48 -23 2002 -3
c2000 -2 2002 -2 2057 18 111 42 195 147 216 270 8 47 10 1339 8 4655 -3 4375
-4 4592 -21 4635 -40 101 -122 180 -220 214 -44 15 -524 16 -5900 15 -3219 0
-5863 -4 -5877 -8z"/>
</g>
</svg>