<?xml version="1.0" standalone="no"?>
<!DOCTYPE svg PUBLIC "-//W3C//DTD SVG 20010904//EN"
 "http://www.w3.org/TR/2001/REC-SVG-20010904/DTD/svg10.dtd">
<svg version="1.0" xmlns="http://www.w3.org/2000/svg"
 width="7755.000000pt" height="2350.000000pt" viewBox="0 0 7755.000000 2350.000000"
 preserveAspectRatio="xMidYMid meet">

<g transform="translate(0.000000,2350.000000) scale(0.100000,-0.100000)"
fill="#000000" stroke="none">
<path d="M5790 23450 c-31 -31 -56 -70 -69 -105 l-21 -56 2 -1907 3 -1907 24
-49 c33 -66 91 -122 160 -155 l56 -26 1285 -5 1285 -5 57 -28 c62 -30 115 -83
150 -149 36 -68 32 -193 -10 -320 -169 -506 -610 -1093 -1070 -1426 -98 -70
-316 -183 -407 -209 -57 -17 -253 -18 -3525 -23 l-3465 -5 -45 -21 c-72 -34
-126 -88 -162 -162 l-33 -67 0 -8250 0 -8250 26 -56 c36 -76 90 -133 157 -166
l57 -28 8450 0 8450 0 46 21 c64 30 125 88 157 148 l27 51 -1 1950 c-1 1073
-1 1970 -1 1995 0 25 1 1863 1 4085 l1 4040 -31 65 c-39 83 -111 155 -194 194
l-65 31 -1820 3 c-1794 2 -1821 2 -1885 -18 -113 -34 -205 -121 -252 -237
l-23 -58 -5 -3865 -5 -3865 -22 -45 c-35 -71 -76 -114 -145 -151 l-63 -34
-2275 -3 c-2178 -2 -2354 -1 -4135 28 -1207 19 -1874 34 -1900 41 -91 25 -176
98 -218 187 l-22 47 0 3920 0 3920 22 47 c29 63 96 134 158 166 l50 27 1735 6
c1880 6 1777 3 2070 60 713 139 1461 518 2175 1104 335 275 720 659 1011 1010
472 570 840 1205 1008 1741 39 121 94 181 194 210 96 28 207 -6 274 -85 66
-77 62 -5 68 -1256 l5 -1140 23 -43 c33 -61 95 -120 161 -151 l56 -26 1850 -3
c1256 -2 1872 1 1918 8 38 6 87 20 110 31 61 31 132 111 157 175 l20 55 0
4409 0 4409 -21 57 c-14 38 -39 75 -73 111 l-52 53 -5698 0 -5697 0 -49 -50z"/>
<path d="M25768 23474 c-543 -103 -1186 -351 -1741 -673 -77 -44 -107 -58
-107 -48 0 1 -18 134 -40 296 -22 162 -40 298 -40 303 0 4 -522 8 -1160 8
l-1160 0 0 -4800 0 -4800 1255 0 1255 0 0 3569 0 3569 121 51 c385 163 831
277 1223 312 176 16 535 6 681 -20 529 -91 771 -323 844 -808 8 -50 11 -1060
11 -3372 l0 -3301 1255 0 1255 0 0 3583 -1 3582 75 32 c295 126 733 242 1096
290 193 26 668 26 825 0 545 -90 793 -314 870 -787 13 -84 15 -631 15 -4916 0
-4388 1 -4822 16 -4828 28 -11 5768 -7 5914 4 696 52 1244 242 1719 598 140
104 402 363 525 517 281 354 539 817 762 1365 51 126 3724 10143 3724 10156 0
2 -607 4 -1348 4 l-1349 0 -275 -872 c-151 -480 -619 -1963 -1039 -3295 -420
-1332 -767 -2419 -770 -2415 -3 4 -496 1486 -1095 3294 l-1089 3288 -1397 0
c-769 0 -1398 -3 -1398 -7 0 -5 833 -2091 1852 -4637 l1851 -4629 -12 -46
c-25 -92 -114 -319 -176 -446 -86 -176 -153 -274 -251 -372 -71 -71 -97 -89
-195 -137 -122 -59 -235 -93 -414 -122 -132 -22 -439 -24 -2022 -10 l-1023 9
0 3801 c0 2394 -4 3871 -10 3991 -32 599 -142 1070 -346 1476 -331 661 -897
1077 -1689 1240 l-140 29 -705 0 c-657 0 -713 -1 -828 -20 -721 -118 -1485
-395 -2126 -771 l-140 -82 -24 29 c-366 438 -819 695 -1440 819 l-124 25 -671
-1 c-666 -1 -673 -1 -799 -25z m1162 -265 c69 -6 190 -22 270 -35 628 -105
1081 -362 1399 -791 l84 -113 95 0 96 0 110 69 c285 177 647 360 946 479 1240
493 2547 543 3372 131 401 -201 676 -483 879 -903 157 -324 253 -722 289
-1185 7 -89 10 -1510 10 -4177 l0 -4042 938 -6 c515 -3 1189 -10 1497 -16 739
-12 947 0 1220 70 400 103 641 307 853 721 70 138 163 371 221 556 l42 131
-1782 4454 c-980 2449 -1784 4461 -1786 4471 -5 16 49 17 1035 17 l1040 0 194
-587 c762 -2305 2233 -6733 2238 -6733 3 0 524 1647 1159 3660 l1154 3660 995
0 994 0 -4 -22 c-7 -34 -3460 -9457 -3534 -9646 -373 -943 -842 -1593 -1385
-1920 -393 -235 -838 -364 -1395 -402 -95 -6 -1126 -10 -2846 -10 l-2698 0 0
4623 c0 3119 -3 4658 -10 4732 -47 492 -252 825 -626 1013 -459 231 -1231 251
-2006 53 -276 -70 -555 -169 -808 -286 -69 -32 -126 -58 -126 -59 -1 -1 6 -44
17 -96 18 -92 18 -218 19 -3517 l0 -3423 -925 0 -925 0 0 3098 c0 2092 -3
3134 -11 3212 -32 356 -138 608 -339 811 -238 240 -560 356 -1077 390 -591 38
-1263 -105 -1965 -418 l-148 -65 0 -3514 0 -3514 -925 0 -925 0 0 4480 0 4480
852 -2 853 -3 47 -345 c26 -190 47 -346 47 -347 1 -2 55 -3 120 -3 l119 0 114
69 c505 304 1029 539 1484 665 485 134 940 177 1444 135z"/>
<path d="M24280 12784 c-1279 -75 -2084 -597 -2483 -1609 -160 -406 -243 -859
-267 -1445 -6 -140 -10 -2135 -10 -4922 l0 -4688 1090 0 1090 0 0 3725 0 3725
1880 0 1880 0 0 -3725 0 -3725 1085 0 1085 0 0 4635 0 4635 -2966 0 -2967 0 6
293 c6 311 18 433 63 604 94 363 274 543 637 637 192 50 306 61 637 60 318 0
469 -11 859 -60 106 -13 195 -24 197 -24 2 0 4 387 4 859 0 810 -1 860 -17
865 -34 11 -489 85 -643 105 -272 36 -497 51 -800 55 -162 2 -324 2 -360 0z"/>
<path d="M28171 12589 c-81 -14 -228 -66 -298 -105 -487 -272 -636 -902 -323
-1364 122 -180 299 -307 525 -377 l90 -28 370 0 c349 1 374 2 447 22 308 87
555 315 653 604 71 206 71 421 2 624 -82 241 -266 442 -503 551 -156 73 -190
77 -569 80 -187 1 -364 -2 -394 -7z"/>
<path d="M36670 9573 c-879 -32 -1574 -213 -2190 -568 -239 -137 -496 -318
-687 -484 -63 -55 -89 -71 -112 -71 -18 0 -31 5 -31 13 0 6 -20 212 -45 457
-25 245 -45 451 -45 458 0 9 -195 12 -940 12 l-940 0 0 -4635 0 -4635 1090 0
1090 0 0 3435 0 3434 103 62 c351 209 800 383 1217 473 353 75 593 100 960
100 377 1 620 -31 872 -114 481 -158 756 -455 861 -930 l21 -95 3 -3182 3
-3183 1090 0 1090 0 0 3193 c0 1865 -4 3288 -10 3422 -24 571 -123 1008 -320
1410 -237 485 -613 854 -1115 1096 -518 249 -1181 361 -1965 332z"/>
<path d="M45265 9570 c-942 -24 -1682 -95 -2410 -231 -117 -22 -418 -86 -447
-95 -17 -5 -18 -57 -18 -914 0 -723 3 -908 13 -905 36 13 421 80 631 110 602
86 1239 125 2056 128 535 2 727 -14 1015 -83 531 -127 845 -394 970 -825 56
-195 57 -211 62 -767 4 -473 3 -518 -12 -518 -9 0 -46 7 -83 15 -558 122
-1409 194 -2157 182 -716 -12 -1246 -78 -1711 -213 -694 -200 -1119 -532
-1377 -1074 -191 -401 -273 -811 -284 -1425 -8 -426 11 -689 73 -1035 193
-1074 789 -1695 1817 -1895 l127 -25 710 0 710 0 173 35 c644 130 1314 405
1842 758 66 44 140 95 164 114 47 35 91 44 91 18 0 -17 76 -693 85 -762 l6
-43 1005 0 1004 0 0 3163 c0 1857 -4 3254 -10 3385 -5 122 -17 284 -25 360
-106 913 -473 1577 -1105 1997 -457 304 -1025 476 -1770 535 -185 15 -770 20
-1145 10z m685 -5471 c337 -19 726 -61 1048 -110 l142 -23 0 -801 0 -802 -147
-71 c-670 -321 -1521 -512 -2178 -488 -619 22 -959 172 -1124 495 -93 181
-129 345 -138 621 -9 288 29 498 124 684 62 122 181 243 298 303 237 122 576
186 1095 207 134 5 699 -4 880 -15z"/>
<path d="M56230 9570 c-852 -43 -1502 -218 -2120 -573 -210 -120 -466 -301
-660 -466 -103 -87 -145 -103 -154 -58 -3 12 -24 213 -46 447 -22 234 -43 435
-46 448 l-4 22 -935 0 -935 0 0 -4635 0 -4635 1085 0 1085 0 0 3433 0 3434
105 62 c499 297 1101 491 1723 555 360 37 726 30 1017 -19 680 -116 1064 -451
1177 -1030 l22 -110 3 -3162 3 -3163 1085 0 1085 0 0 3298 c0 2095 -4 3352
-10 3447 -34 505 -134 912 -315 1281 -412 838 -1219 1318 -2380 1414 -181 15
-588 20 -785 10z"/>
<path d="M65571 9570 c-947 -39 -1694 -191 -2298 -467 -667 -305 -1138 -786
-1436 -1463 -255 -581 -396 -1243 -459 -2155 -17 -248 -17 -1267 0 -1530 32
-488 67 -820 123 -1150 130 -775 346 -1359 660 -1782 85 -115 271 -308 384
-400 344 -278 778 -468 1315 -576 241 -49 230 -48 1265 -45 l980 4 245 37
c821 125 1541 325 1970 546 l95 49 3 912 c2 866 1 912 -15 905 -102 -41 -441
-141 -663 -194 -1126 -273 -2351 -364 -3013 -225 -292 62 -525 170 -688 321
-262 243 -408 708 -474 1505 -52 633 -39 1500 30 2043 61 476 178 856 335
1091 318 474 1115 675 2485 625 463 -17 862 -40 1663 -97 l92 -7 0 965 0 965
-222 27 c-375 45 -665 68 -1053 86 -318 14 -1086 20 -1324 10z"/>
<path d="M73395 9573 c-1263 -43 -2204 -384 -2841 -1028 -663 -672 -1019
-1693 -1105 -3170 -14 -243 -14 -952 0 -1205 44 -783 148 -1402 326 -1935 157
-472 357 -845 620 -1155 154 -182 395 -391 600 -522 411 -263 934 -445 1540
-538 123 -19 182 -20 1150 -20 l1020 0 207 25 c287 34 502 68 789 125 571 113
995 242 1303 395 l141 70 3 882 c1 486 1 883 -1 883 -2 0 -90 -24 -194 -54
-641 -183 -1571 -327 -2433 -377 -271 -16 -867 -16 -1045 0 -1071 95 -1539
426 -1745 1236 -58 225 -100 555 -100 777 l0 78 2909 0 2909 0 6 48 c8 60 51
561 68 792 21 278 17 1273 -5 1510 -52 546 -126 926 -256 1301 -201 582 -510
999 -956 1291 -396 260 -902 432 -1535 522 -406 58 -929 85 -1375 69z m655
-1904 c254 -19 482 -63 663 -126 388 -135 598 -351 726 -748 81 -248 110 -470
118 -892 l6 -303 -1968 0 -1968 0 6 203 c24 758 207 1270 548 1526 231 175
554 283 984 332 230 26 603 29 885 8z"/>
</g>
</svg>
